<svg width="150" height="144" viewBox="0 0 150 144" fill="none" xmlns="http://www.w3.org/2000/svg">
<rect y="2" width="150" height="139" fill="#EFEFEF"/>
<path d="M55.6719 109V36.625H66.5469C71.3906 36.625 75.25 37 78.125 37.75C81.0312 38.5 83.4844 39.7656 85.4844 41.5469C87.5156 43.3906 89.125 45.6875 90.3125 48.4375C91.5312 51.2188 92.1406 54.0312 92.1406 56.875C92.1406 62.0625 90.1562 66.4531 86.1875 70.0469C90.0312 71.3594 93.0625 73.6562 95.2812 76.9375C97.5312 80.1875 98.6562 83.9688 98.6562 88.2812C98.6562 93.9375 96.6562 98.7188 92.6562 102.625C90.25 105.031 87.5469 106.703 84.5469 107.641C81.2656 108.547 77.1562 109 72.2188 109H55.6719ZM66.5938 67.7031H70.0156C74.0781 67.7031 77.0469 66.8125 78.9219 65.0312C80.8281 63.2188 81.7812 60.5625 81.7812 57.0625C81.7812 53.6562 80.8125 51.0781 78.875 49.3281C76.9375 47.5469 74.125 46.6562 70.4375 46.6562H66.5938V67.7031ZM66.5938 98.7344H73.3438C78.2812 98.7344 81.9062 97.7656 84.2188 95.8281C86.6562 93.7344 87.875 91.0781 87.875 87.8594C87.875 84.7344 86.7031 82.1094 84.3594 79.9844C82.0781 77.8906 78 76.8438 72.125 76.8438H66.5938V98.7344Z" fill="black"/>
</svg>
