<svg width="35" height="27" viewBox="0 0 35 27" fill="none" xmlns="http://www.w3.org/2000/svg">
<path d="M28.9756 8.00881L28.9759 7.00881L28.9759 7.00881L28.9756 8.00881ZM0.293117 7.29267C-0.0975314 7.68307 -0.0977286 8.31624 0.292671 8.70688L6.65463 15.0728C7.04503 15.4635 7.67819 15.4637 8.06884 15.0733C8.45949 14.6829 8.45969 14.0497 8.06929 13.6591L2.41421 8.00044L8.07285 2.34537C8.4635 1.95497 8.4637 1.32181 8.07329 0.93116C7.68289 0.540513 7.04973 0.540314 6.65908 0.930715L0.293117 7.29267ZM28.9743 25.9987L28.974 26.9987L28.9743 25.9987ZM33.976 20.9975L32.976 20.9977L33.976 20.9975ZM33.974 13.0076L34.974 13.0073L33.974 13.0076ZM28.9756 8.00881L28.9759 7.00881L1.00032 7L1 8L0.999685 9L28.9752 9.00881L28.9756 8.00881ZM6.2811 25.9913L6.28077 26.9913L28.974 26.9987L28.9743 25.9987L28.9747 24.9987L6.28143 24.9913L6.2811 25.9913ZM33.976 20.9975L34.976 20.9972L34.974 13.0073L33.974 13.0076L32.974 13.0078L32.976 20.9977L33.976 20.9975ZM28.9743 25.9987L28.974 26.9987C32.2891 26.9998 34.9768 24.3123 34.976 20.9972L33.976 20.9975L32.976 20.9977C32.9765 23.2078 31.1847 24.9994 28.9747 24.9987L28.9743 25.9987ZM28.9756 8.00881L28.9752 9.00881C31.1835 9.00951 32.9734 10.7996 32.974 13.0078L33.974 13.0076L34.974 13.0073C34.9732 9.69493 32.2883 7.00986 28.9759 7.00881L28.9756 8.00881Z" fill="black"/>
</svg>
